<?xml version="1.0" encoding="utf-8"?>
<!-- Svg Vector Icons : http://www.onlinewebfonts.com/icon -->
<!DOCTYPE svg PUBLIC "-//W3C//DTD SVG 1.1//EN" "http://www.w3.org/Graphics/SVG/1.1/DTD/svg11.dtd">
<svg version="1.1" xmlns="http://www.w3.org/2000/svg" xmlns:xlink="http://www.w3.org/1999/xlink" x="0px" y="0px" viewBox="0 0 1000 1000" enable-background="new 0 0 1000 1000" xml:space="preserve">
<metadata> Svg Vector Icons : http://www.onlinewebfonts.com/icon </metadata>
<g><g><path d="M761.3,924.7H108v-588h653.3v196h65.3V206c0-35.7-29.6-65.3-65.3-65.3h-196C565.3,68.2,507.1,10,434.7,10C362.2,10,304,68.2,304,140.7H108c-35.7,0-65.3,29.6-65.3,65.3v718.7c0,35.7,29.6,65.3,65.3,65.3h653.3c35.7,0,65.3-29.6,65.3-65.3V794h-65.3V924.7z M238.7,206c29.6,0,29.6,0,65.3,0s65.3-29.6,65.3-65.3c0-35.7,29.6-65.3,65.3-65.3c35.7,0,65.3,29.6,65.3,65.3c0,35.7,32.7,65.3,65.3,65.3c32.7,0,33.7,0,65.3,0s65.3,29.6,65.3,65.3H173.3C173.3,231.5,201.9,206,238.7,206z M173.3,728.7H304v-65.3H173.3V728.7z M630.7,598V467.3l-261.3,196l261.3,196V728.7h326.7V598H630.7z M173.3,859.3h196V794h-196V859.3z M500,402H173.3v65.3H500V402z M304,532.7H173.3V598H304V532.7z"/></g></g>
</svg>